<svg xmlns="http://www.w3.org/2000/svg" xmlns:xlink="http://www.w3.org/1999/xlink" width="1920" zoomAndPan="magnify" viewBox="0 0 1440 809.999993" height="1080" preserveAspectRatio="xMidYMid meet" version="1.2"><defs><clipPath id="301c1ebb4a"><path d="M 134.039062 98 L 158.789062 98 L 158.789062 122.65625 L 134.039062 122.65625 Z M 134.039062 98 "/></clipPath><clipPath id="e59182df6f"><path d="M 144 94.90625 L 148 94.90625 L 148 112 L 144 112 Z M 144 94.90625 "/></clipPath><clipPath id="f7648234a4"><path d="M 897.261719 0 L 1440 0 L 1440 810 L 897.261719 810 Z M 897.261719 0 "/></clipPath><clipPath id="8a72e82f83"><path d="M 1421.140625 -144.570312 C 1131.808594 -144.570312 897.261719 89.976562 897.261719 379.304688 C 897.261719 668.636719 1131.808594 903.183594 1421.140625 903.183594 C 1710.46875 903.183594 1945.015625 668.636719 1945.015625 379.304688 C 1945.015625 89.976562 1710.46875 -144.570312 1421.140625 -144.570312 Z M 1421.140625 -144.570312 "/></clipPath><clipPath id="b46a78f50c"><path d="M 1304.261719 81 L 1314 81 L 1314 91 L 1304.261719 91 Z M 1304.261719 81 "/></clipPath><clipPath id="f2f6025cb2"><path d="M 1349 132 L 1359 132 L 1359 141.75 L 1349 141.75 Z M 1349 132 "/></clipPath><clipPath id="ec93b7e8a6"><path d="M 0 144 L 95.644531 144 L 95.644531 146 L 0 146 Z M 0 144 "/></clipPath></defs><g id="833a8ee1f6"><rect x="0" width="1440" y="0" height="809.999993" style="fill:#ffffff;fill-opacity:1;stroke:none;"/><rect x="0" width="1440" y="0" height="809.999993" style="fill:#212163;fill-opacity:1;stroke:none;"/><g clip-rule="nonzero" clip-path="url(#301c1ebb4a)"><path style=" stroke:none;fill-rule:nonzero;fill:#fe6544;fill-opacity:1;" d="M 148.894531 98.492188 L 148.894531 103.335938 C 151.945312 104.445312 154.132812 107.371094 154.132812 110.800781 C 154.132812 110.988281 154.121094 111.171875 154.109375 111.355469 C 153.824219 115.476562 150.382812 118.742188 146.191406 118.742188 C 142 118.742188 138.558594 115.476562 138.269531 111.355469 C 138.257812 111.171875 138.25 110.988281 138.25 110.800781 C 138.25 107.371094 140.433594 104.445312 143.484375 103.335938 L 143.484375 98.589844 C 138.074219 99.90625 134.046875 104.792969 134.046875 110.601562 C 134.046875 110.855469 134.054688 111.105469 134.070312 111.355469 L 134.050781 111.355469 C 134.050781 117.53125 139.078125 122.558594 145.253906 122.558594 C 151.433594 122.558594 156.457031 117.53125 156.457031 111.355469 C 156.457031 111.101562 156.664062 110.894531 156.917969 110.894531 C 157.171875 110.894531 157.375 111.101562 157.375 111.355469 C 157.375 116.105469 154.628906 120.226562 150.640625 122.210938 C 155.375 120.480469 158.765625 115.929688 158.765625 110.601562 C 158.765625 104.636719 154.523438 99.648438 148.894531 98.492188 Z M 148.894531 98.492188 "/></g><g clip-rule="nonzero" clip-path="url(#e59182df6f)"><path style=" stroke:none;fill-rule:nonzero;fill:#fe6544;fill-opacity:1;" d="M 146.191406 111.96875 C 147.175781 111.96875 147.976562 111.164062 147.976562 110.179688 L 147.976562 96.699219 C 147.976562 95.714844 147.175781 94.914062 146.191406 94.914062 C 145.203125 94.914062 144.402344 95.714844 144.402344 96.699219 L 144.402344 110.179688 C 144.402344 111.164062 145.203125 111.96875 146.191406 111.96875 Z M 146.179688 95.792969 C 146.800781 95.792969 147.304688 96.296875 147.304688 96.917969 C 147.304688 97.539062 146.800781 98.042969 146.179688 98.042969 C 145.558594 98.042969 145.054688 97.539062 145.054688 96.917969 C 145.054688 96.296875 145.558594 95.792969 146.179688 95.792969 Z M 146.179688 95.792969 "/></g><g clip-rule="nonzero" clip-path="url(#f7648234a4)"><g clip-rule="nonzero" clip-path="url(#8a72e82f83)"><path style=" stroke:none;fill-rule:nonzero;fill:#2c2c6c;fill-opacity:1;" d="M 897.261719 -144.570312 L 1945.015625 -144.570312 L 1945.015625 903.183594 L 897.261719 903.183594 Z M 897.261719 -144.570312 "/></g></g><g clip-rule="nonzero" clip-path="url(#b46a78f50c)"><path style=" stroke:none;fill-rule:nonzero;fill:#f5f5f5;fill-opacity:1;" d="M 1313.601562 85.644531 C 1313.601562 85.949219 1313.570312 86.25 1313.511719 86.550781 C 1313.453125 86.847656 1313.363281 87.140625 1313.25 87.421875 C 1313.132812 87.703125 1312.988281 87.96875 1312.820312 88.222656 C 1312.648438 88.476562 1312.457031 88.710938 1312.242188 88.925781 C 1312.027344 89.144531 1311.792969 89.335938 1311.539062 89.503906 C 1311.285156 89.675781 1311.015625 89.816406 1310.734375 89.933594 C 1310.453125 90.050781 1310.164062 90.136719 1309.863281 90.199219 C 1309.566406 90.257812 1309.261719 90.289062 1308.957031 90.289062 C 1308.652344 90.289062 1308.351562 90.257812 1308.050781 90.199219 C 1307.753906 90.136719 1307.460938 90.050781 1307.179688 89.933594 C 1306.898438 89.816406 1306.632812 89.675781 1306.378906 89.503906 C 1306.125 89.335938 1305.890625 89.144531 1305.675781 88.925781 C 1305.460938 88.710938 1305.265625 88.476562 1305.097656 88.222656 C 1304.929688 87.96875 1304.785156 87.703125 1304.667969 87.421875 C 1304.550781 87.140625 1304.464844 86.847656 1304.402344 86.550781 C 1304.34375 86.25 1304.316406 85.949219 1304.316406 85.644531 C 1304.316406 85.339844 1304.34375 85.035156 1304.402344 84.738281 C 1304.464844 84.4375 1304.550781 84.148438 1304.667969 83.867188 C 1304.785156 83.585938 1304.929688 83.316406 1305.097656 83.0625 C 1305.265625 82.808594 1305.460938 82.574219 1305.675781 82.359375 C 1305.890625 82.144531 1306.125 81.953125 1306.378906 81.78125 C 1306.632812 81.613281 1306.898438 81.46875 1307.179688 81.351562 C 1307.460938 81.238281 1307.753906 81.148438 1308.050781 81.089844 C 1308.351562 81.03125 1308.652344 81 1308.957031 81 C 1309.261719 81 1309.566406 81.03125 1309.863281 81.089844 C 1310.164062 81.148438 1310.453125 81.238281 1310.734375 81.351562 C 1311.015625 81.46875 1311.285156 81.613281 1311.539062 81.78125 C 1311.792969 81.953125 1312.027344 82.144531 1312.242188 82.359375 C 1312.457031 82.574219 1312.648438 82.808594 1312.820312 83.0625 C 1312.988281 83.316406 1313.132812 83.585938 1313.25 83.867188 C 1313.363281 84.148438 1313.453125 84.4375 1313.511719 84.738281 C 1313.570312 85.035156 1313.601562 85.339844 1313.601562 85.644531 Z M 1313.601562 85.644531 "/></g><path style=" stroke:none;fill-rule:nonzero;fill:#f5f5f5;fill-opacity:1;" d="M 1336.140625 85.644531 C 1336.140625 85.949219 1336.113281 86.25 1336.054688 86.550781 C 1335.992188 86.847656 1335.90625 87.140625 1335.789062 87.421875 C 1335.671875 87.703125 1335.527344 87.96875 1335.359375 88.222656 C 1335.191406 88.476562 1334.996094 88.710938 1334.78125 88.925781 C 1334.566406 89.144531 1334.332031 89.335938 1334.078125 89.503906 C 1333.824219 89.675781 1333.558594 89.816406 1333.277344 89.933594 C 1332.992188 90.050781 1332.703125 90.136719 1332.40625 90.199219 C 1332.105469 90.257812 1331.804688 90.289062 1331.5 90.289062 C 1331.195312 90.289062 1330.890625 90.257812 1330.59375 90.199219 C 1330.292969 90.136719 1330.003906 90.050781 1329.722656 89.933594 C 1329.441406 89.816406 1329.171875 89.675781 1328.917969 89.503906 C 1328.664062 89.335938 1328.429688 89.144531 1328.214844 88.925781 C 1328 88.710938 1327.808594 88.476562 1327.636719 88.222656 C 1327.46875 87.96875 1327.324219 87.703125 1327.207031 87.421875 C 1327.089844 87.140625 1327.003906 86.847656 1326.945312 86.550781 C 1326.882812 86.25 1326.855469 85.949219 1326.855469 85.644531 C 1326.855469 85.339844 1326.882812 85.035156 1326.945312 84.738281 C 1327.003906 84.4375 1327.089844 84.148438 1327.207031 83.867188 C 1327.324219 83.585938 1327.46875 83.316406 1327.636719 83.0625 C 1327.808594 82.808594 1328 82.574219 1328.214844 82.359375 C 1328.429688 82.144531 1328.664062 81.953125 1328.917969 81.78125 C 1329.171875 81.613281 1329.441406 81.46875 1329.722656 81.351562 C 1330.003906 81.238281 1330.292969 81.148438 1330.59375 81.089844 C 1330.890625 81.03125 1331.195312 81 1331.5 81 C 1331.804688 81 1332.105469 81.03125 1332.40625 81.089844 C 1332.703125 81.148438 1332.992188 81.238281 1333.277344 81.351562 C 1333.558594 81.46875 1333.824219 81.613281 1334.078125 81.78125 C 1334.332031 81.953125 1334.566406 82.144531 1334.78125 82.359375 C 1334.996094 82.574219 1335.191406 82.808594 1335.359375 83.0625 C 1335.527344 83.316406 1335.671875 83.585938 1335.789062 83.867188 C 1335.90625 84.148438 1335.992188 84.4375 1336.054688 84.738281 C 1336.113281 85.035156 1336.140625 85.339844 1336.140625 85.644531 Z M 1336.140625 85.644531 "/><path style=" stroke:none;fill-rule:nonzero;fill:#f5f5f5;fill-opacity:1;" d="M 1358.679688 85.644531 C 1358.679688 85.949219 1358.648438 86.25 1358.589844 86.550781 C 1358.53125 86.847656 1358.441406 87.140625 1358.324219 87.421875 C 1358.207031 87.703125 1358.066406 87.96875 1357.894531 88.222656 C 1357.726562 88.476562 1357.535156 88.710938 1357.316406 88.925781 C 1357.101562 89.144531 1356.867188 89.335938 1356.613281 89.503906 C 1356.359375 89.675781 1356.09375 89.816406 1355.8125 89.933594 C 1355.53125 90.050781 1355.238281 90.136719 1354.941406 90.199219 C 1354.640625 90.257812 1354.339844 90.289062 1354.035156 90.289062 C 1353.730469 90.289062 1353.425781 90.257812 1353.128906 90.199219 C 1352.828125 90.136719 1352.539062 90.050781 1352.257812 89.933594 C 1351.976562 89.816406 1351.707031 89.675781 1351.453125 89.503906 C 1351.199219 89.335938 1350.964844 89.144531 1350.75 88.925781 C 1350.535156 88.710938 1350.34375 88.476562 1350.171875 88.222656 C 1350.003906 87.96875 1349.859375 87.703125 1349.746094 87.421875 C 1349.628906 87.140625 1349.539062 86.847656 1349.480469 86.550781 C 1349.421875 86.25 1349.390625 85.949219 1349.390625 85.644531 C 1349.390625 85.339844 1349.421875 85.035156 1349.480469 84.738281 C 1349.539062 84.4375 1349.628906 84.148438 1349.746094 83.867188 C 1349.859375 83.585938 1350.003906 83.316406 1350.171875 83.0625 C 1350.34375 82.808594 1350.535156 82.574219 1350.75 82.359375 C 1350.964844 82.144531 1351.199219 81.953125 1351.453125 81.78125 C 1351.707031 81.613281 1351.976562 81.46875 1352.257812 81.351562 C 1352.539062 81.238281 1352.828125 81.148438 1353.128906 81.089844 C 1353.425781 81.03125 1353.730469 81 1354.035156 81 C 1354.339844 81 1354.640625 81.03125 1354.941406 81.089844 C 1355.238281 81.148438 1355.53125 81.238281 1355.8125 81.351562 C 1356.09375 81.46875 1356.359375 81.613281 1356.613281 81.78125 C 1356.867188 81.953125 1357.101562 82.144531 1357.316406 82.359375 C 1357.535156 82.574219 1357.726562 82.808594 1357.894531 83.0625 C 1358.066406 83.316406 1358.207031 83.585938 1358.324219 83.867188 C 1358.441406 84.148438 1358.53125 84.4375 1358.589844 84.738281 C 1358.648438 85.035156 1358.679688 85.339844 1358.679688 85.644531 Z M 1358.679688 85.644531 "/><path style=" stroke:none;fill-rule:nonzero;fill:#f5f5f5;fill-opacity:1;" d="M 1336.140625 111.371094 C 1336.140625 111.675781 1336.113281 111.976562 1336.054688 112.277344 C 1335.992188 112.574219 1335.90625 112.867188 1335.789062 113.148438 C 1335.671875 113.429688 1335.527344 113.695312 1335.359375 113.949219 C 1335.191406 114.203125 1334.996094 114.4375 1334.78125 114.65625 C 1334.566406 114.871094 1334.332031 115.0625 1334.078125 115.230469 C 1333.824219 115.402344 1333.558594 115.542969 1333.277344 115.660156 C 1332.992188 115.777344 1332.703125 115.867188 1332.40625 115.925781 C 1332.105469 115.984375 1331.804688 116.015625 1331.5 116.015625 C 1331.195312 116.015625 1330.890625 115.984375 1330.59375 115.925781 C 1330.292969 115.867188 1330.003906 115.777344 1329.722656 115.660156 C 1329.441406 115.542969 1329.171875 115.402344 1328.917969 115.230469 C 1328.664062 115.0625 1328.429688 114.871094 1328.214844 114.65625 C 1328 114.4375 1327.808594 114.203125 1327.636719 113.949219 C 1327.46875 113.695312 1327.324219 113.429688 1327.207031 113.148438 C 1327.089844 112.867188 1327.003906 112.574219 1326.945312 112.277344 C 1326.882812 111.976562 1326.855469 111.675781 1326.855469 111.371094 C 1326.855469 111.066406 1326.882812 110.765625 1326.945312 110.464844 C 1327.003906 110.164062 1327.089844 109.875 1327.207031 109.59375 C 1327.324219 109.3125 1327.46875 109.042969 1327.636719 108.789062 C 1327.808594 108.539062 1328 108.304688 1328.214844 108.085938 C 1328.429688 107.871094 1328.664062 107.679688 1328.917969 107.511719 C 1329.171875 107.339844 1329.441406 107.199219 1329.722656 107.082031 C 1330.003906 106.964844 1330.292969 106.875 1330.59375 106.816406 C 1330.890625 106.757812 1331.195312 106.726562 1331.5 106.726562 C 1331.804688 106.726562 1332.105469 106.757812 1332.40625 106.816406 C 1332.703125 106.875 1332.992188 106.964844 1333.277344 107.082031 C 1333.558594 107.199219 1333.824219 107.339844 1334.078125 107.511719 C 1334.332031 107.679688 1334.566406 107.871094 1334.78125 108.085938 C 1334.996094 108.304688 1335.191406 108.539062 1335.359375 108.789062 C 1335.527344 109.042969 1335.671875 109.3125 1335.789062 109.59375 C 1335.90625 109.875 1335.992188 110.164062 1336.054688 110.464844 C 1336.113281 110.765625 1336.140625 111.066406 1336.140625 111.371094 Z M 1336.140625 111.371094 "/><path style=" stroke:none;fill-rule:nonzero;fill:#f5f5f5;fill-opacity:1;" d="M 1358.679688 111.371094 C 1358.679688 111.675781 1358.648438 111.976562 1358.589844 112.277344 C 1358.53125 112.574219 1358.441406 112.867188 1358.324219 113.148438 C 1358.207031 113.429688 1358.066406 113.695312 1357.894531 113.949219 C 1357.726562 114.203125 1357.535156 114.4375 1357.316406 114.65625 C 1357.101562 114.871094 1356.867188 115.0625 1356.613281 115.230469 C 1356.359375 115.402344 1356.09375 115.542969 1355.8125 115.660156 C 1355.53125 115.777344 1355.238281 115.867188 1354.941406 115.925781 C 1354.640625 115.984375 1354.339844 116.015625 1354.035156 116.015625 C 1353.730469 116.015625 1353.425781 115.984375 1353.128906 115.925781 C 1352.828125 115.867188 1352.539062 115.777344 1352.257812 115.660156 C 1351.976562 115.542969 1351.707031 115.402344 1351.453125 115.230469 C 1351.199219 115.0625 1350.964844 114.871094 1350.75 114.65625 C 1350.535156 114.4375 1350.34375 114.203125 1350.171875 113.949219 C 1350.003906 113.695312 1349.859375 113.429688 1349.746094 113.148438 C 1349.628906 112.867188 1349.539062 112.574219 1349.480469 112.277344 C 1349.421875 111.976562 1349.390625 111.675781 1349.390625 111.371094 C 1349.390625 111.066406 1349.421875 110.765625 1349.480469 110.464844 C 1349.539062 110.164062 1349.628906 109.875 1349.746094 109.59375 C 1349.859375 109.3125 1350.003906 109.042969 1350.171875 108.789062 C 1350.34375 108.539062 1350.535156 108.304688 1350.75 108.085938 C 1350.964844 107.871094 1351.199219 107.679688 1351.453125 107.511719 C 1351.707031 107.339844 1351.976562 107.199219 1352.257812 107.082031 C 1352.539062 106.964844 1352.828125 106.875 1353.128906 106.816406 C 1353.425781 106.757812 1353.730469 106.726562 1354.035156 106.726562 C 1354.339844 106.726562 1354.640625 106.757812 1354.941406 106.816406 C 1355.238281 106.875 1355.53125 106.964844 1355.8125 107.082031 C 1356.09375 107.199219 1356.359375 107.339844 1356.613281 107.511719 C 1356.867188 107.679688 1357.101562 107.871094 1357.316406 108.085938 C 1357.535156 108.304688 1357.726562 108.539062 1357.894531 108.789062 C 1358.066406 109.042969 1358.207031 109.3125 1358.324219 109.59375 C 1358.441406 109.875 1358.53125 110.164062 1358.589844 110.464844 C 1358.648438 110.765625 1358.679688 111.066406 1358.679688 111.371094 Z M 1358.679688 111.371094 "/><g clip-rule="nonzero" clip-path="url(#f2f6025cb2)"><path style=" stroke:none;fill-rule:nonzero;fill:#f5f5f5;fill-opacity:1;" d="M 1358.679688 137.097656 C 1358.679688 137.402344 1358.648438 137.703125 1358.589844 138.003906 C 1358.53125 138.304688 1358.441406 138.59375 1358.324219 138.875 C 1358.207031 139.15625 1358.066406 139.425781 1357.894531 139.679688 C 1357.726562 139.929688 1357.535156 140.164062 1357.316406 140.382812 C 1357.101562 140.597656 1356.867188 140.789062 1356.613281 140.960938 C 1356.359375 141.128906 1356.09375 141.269531 1355.8125 141.386719 C 1355.53125 141.503906 1355.238281 141.59375 1354.941406 141.652344 C 1354.640625 141.710938 1354.339844 141.742188 1354.035156 141.742188 C 1353.730469 141.742188 1353.425781 141.710938 1353.128906 141.652344 C 1352.828125 141.59375 1352.539062 141.503906 1352.257812 141.386719 C 1351.976562 141.269531 1351.707031 141.128906 1351.453125 140.960938 C 1351.199219 140.789062 1350.964844 140.597656 1350.75 140.382812 C 1350.535156 140.164062 1350.34375 139.929688 1350.171875 139.679688 C 1350.003906 139.425781 1349.859375 139.15625 1349.746094 138.875 C 1349.628906 138.59375 1349.539062 138.304688 1349.480469 138.003906 C 1349.421875 137.703125 1349.390625 137.402344 1349.390625 137.097656 C 1349.390625 136.792969 1349.421875 136.492188 1349.480469 136.191406 C 1349.539062 135.894531 1349.628906 135.601562 1349.746094 135.320312 C 1349.859375 135.039062 1350.003906 134.773438 1350.171875 134.519531 C 1350.34375 134.265625 1350.535156 134.03125 1350.75 133.816406 C 1350.964844 133.597656 1351.199219 133.40625 1351.453125 133.238281 C 1351.707031 133.066406 1351.976562 132.925781 1352.257812 132.808594 C 1352.539062 132.691406 1352.828125 132.601562 1353.128906 132.542969 C 1353.425781 132.484375 1353.730469 132.453125 1354.035156 132.453125 C 1354.339844 132.453125 1354.640625 132.484375 1354.941406 132.542969 C 1355.238281 132.601562 1355.53125 132.691406 1355.8125 132.808594 C 1356.09375 132.925781 1356.359375 133.066406 1356.613281 133.238281 C 1356.867188 133.40625 1357.101562 133.597656 1357.316406 133.816406 C 1357.535156 134.03125 1357.726562 134.265625 1357.894531 134.519531 C 1358.066406 134.773438 1358.207031 135.039062 1358.324219 135.320312 C 1358.441406 135.601562 1358.53125 135.894531 1358.589844 136.191406 C 1358.648438 136.492188 1358.679688 136.792969 1358.679688 137.097656 Z M 1358.679688 137.097656 "/></g><g style="fill:#fe6544;fill-opacity:1;"><g transform="translate(134.037261, 354.050714)"><path style="stroke:none" d="M 40.5 1.40625 C 33.4375 1.40625 27.171875 -0.144531 21.703125 -3.25 C 16.234375 -6.351562 11.960938 -10.632812 8.890625 -16.09375 C 5.828125 -21.5625 4.296875 -27.863281 4.296875 -35 C 4.296875 -42.132812 5.828125 -48.429688 8.890625 -53.890625 C 11.960938 -59.359375 16.210938 -63.644531 21.640625 -66.75 C 27.078125 -69.851562 33.332031 -71.40625 40.40625 -71.40625 C 46.332031 -71.40625 51.757812 -70.269531 56.6875 -68 C 61.625 -65.726562 65.773438 -62.523438 69.140625 -58.390625 C 72.515625 -54.265625 74.867188 -49.398438 76.203125 -43.796875 L 59.796875 -43.796875 C 58.460938 -47.660156 56.09375 -50.707031 52.6875 -52.9375 C 49.289062 -55.175781 45.363281 -56.296875 40.90625 -56.296875 C 36.96875 -56.296875 33.445312 -55.394531 30.34375 -53.59375 C 27.25 -51.800781 24.832031 -49.300781 23.09375 -46.09375 C 21.363281 -42.894531 20.5 -39.195312 20.5 -35 C 20.5 -30.800781 21.363281 -27.097656 23.09375 -23.890625 C 24.832031 -20.691406 27.234375 -18.191406 30.296875 -16.390625 C 33.367188 -14.597656 36.867188 -13.703125 40.796875 -13.703125 C 45.398438 -13.703125 49.429688 -14.882812 52.890625 -17.25 C 56.359375 -19.613281 58.828125 -22.796875 60.296875 -26.796875 L 76.703125 -26.796875 C 75.566406 -21.128906 73.296875 -16.175781 69.890625 -11.9375 C 66.492188 -7.707031 62.28125 -4.425781 57.25 -2.09375 C 52.21875 0.238281 46.632812 1.40625 40.5 1.40625 Z M 40.5 1.40625 "/></g></g><g style="fill:#fe6544;fill-opacity:1;"><g transform="translate(214.734149, 354.050714)"><path style="stroke:none" d="M 41.59375 1.40625 C 34.332031 1.40625 27.882812 -0.144531 22.25 -3.25 C 16.613281 -6.351562 12.210938 -10.632812 9.046875 -16.09375 C 5.878906 -21.5625 4.296875 -27.863281 4.296875 -35 C 4.296875 -42.132812 5.878906 -48.429688 9.046875 -53.890625 C 12.210938 -59.359375 16.613281 -63.644531 22.25 -66.75 C 27.882812 -69.851562 34.332031 -71.40625 41.59375 -71.40625 C 48.925781 -71.40625 55.394531 -69.851562 61 -66.75 C 66.601562 -63.644531 71.003906 -59.359375 74.203125 -53.890625 C 77.398438 -48.429688 79 -42.132812 79 -35 C 79 -27.863281 77.398438 -21.5625 74.203125 -16.09375 C 71.003906 -10.632812 66.601562 -6.351562 61 -3.25 C 55.394531 -0.144531 48.925781 1.40625 41.59375 1.40625 Z M 20.5 -35 C 20.5 -30.800781 21.398438 -27.097656 23.203125 -23.890625 C 25.003906 -20.691406 27.488281 -18.191406 30.65625 -16.390625 C 33.820312 -14.597656 37.46875 -13.703125 41.59375 -13.703125 C 45.800781 -13.703125 49.488281 -14.597656 52.65625 -16.390625 C 55.820312 -18.191406 58.285156 -20.691406 60.046875 -23.890625 C 61.816406 -27.097656 62.703125 -30.800781 62.703125 -35 C 62.703125 -39.195312 61.816406 -42.894531 60.046875 -46.09375 C 58.285156 -49.300781 55.820312 -51.800781 52.65625 -53.59375 C 49.488281 -55.394531 45.800781 -56.296875 41.59375 -56.296875 C 37.46875 -56.296875 33.820312 -55.394531 30.65625 -53.59375 C 27.488281 -51.800781 25.003906 -49.300781 23.203125 -46.09375 C 21.398438 -42.894531 20.5 -39.195312 20.5 -35 Z M 20.5 -35 "/></g></g><g style="fill:#fe6544;fill-opacity:1;"><g transform="translate(298.03094, 354.050714)"><path style="stroke:none" d="M 8.40625 0 L 8.40625 -70 L 36.09375 -70 C 43.5 -70 49.96875 -68.53125 55.5 -65.59375 C 61.03125 -62.664062 65.328125 -58.566406 68.390625 -53.296875 C 71.460938 -48.035156 73 -41.9375 73 -35 C 73 -28 71.460938 -21.878906 68.390625 -16.640625 C 65.328125 -11.410156 61.03125 -7.328125 55.5 -4.390625 C 49.96875 -1.460938 43.5 0 36.09375 0 Z M 24.296875 -14.59375 L 35.796875 -14.59375 C 39.929688 -14.59375 43.566406 -15.441406 46.703125 -17.140625 C 49.835938 -18.847656 52.285156 -21.234375 54.046875 -24.296875 C 55.816406 -27.367188 56.703125 -30.9375 56.703125 -35 C 56.703125 -39.132812 55.816406 -42.71875 54.046875 -45.75 C 52.285156 -48.78125 49.820312 -51.144531 46.65625 -52.84375 C 43.488281 -54.550781 39.800781 -55.40625 35.59375 -55.40625 L 24.296875 -55.40625 Z M 24.296875 -14.59375 "/></g></g><g style="fill:#fe6544;fill-opacity:1;"><g transform="translate(375.227961, 354.050714)"><path style="stroke:none" d="M 8.40625 0 L 8.40625 -70 L 54.40625 -70 L 54.40625 -56.59375 L 24.203125 -56.59375 L 24.203125 -42.09375 L 51.703125 -42.09375 L 51.703125 -28.796875 L 24.203125 -28.796875 L 24.203125 -13.5 L 55.5 -13.5 L 55.5 0 Z M 8.40625 0 "/></g></g><g style="fill:#f5f5f5;fill-opacity:1;"><g transform="translate(134.037261, 444.123454)"><path style="stroke:none" d="M 8.1875 0 L 8.1875 -56.203125 L 27.21875 -56.203125 C 31.445312 -56.203125 35.125 -55.425781 38.25 -53.875 C 41.382812 -52.320312 43.804688 -50.140625 45.515625 -47.328125 C 47.234375 -44.515625 48.09375 -41.179688 48.09375 -37.328125 C 48.09375 -33.472656 47.234375 -30.140625 45.515625 -27.328125 C 43.804688 -24.523438 41.382812 -22.347656 38.25 -20.796875 C 35.125 -19.242188 31.445312 -18.46875 27.21875 -18.46875 L 15.25 -18.46875 L 15.25 0 Z M 15.25 -25.046875 L 27.0625 -25.046875 C 36.257812 -25.046875 40.859375 -29.113281 40.859375 -37.25 C 40.859375 -45.382812 36.257812 -49.453125 27.0625 -49.453125 L 15.25 -49.453125 Z M 15.25 -25.046875 "/></g></g><g style="fill:#f5f5f5;fill-opacity:1;"><g transform="translate(185.339463, 444.123454)"><path style="stroke:none" d="M 8.1875 0 L 8.1875 -56.203125 L 29.625 -56.203125 C 33.53125 -56.203125 36.925781 -55.460938 39.8125 -53.984375 C 42.707031 -52.515625 44.957031 -50.441406 46.5625 -47.765625 C 48.164062 -45.085938 48.96875 -41.878906 48.96875 -38.140625 C 48.96875 -33.585938 47.789062 -29.828125 45.4375 -26.859375 C 43.082031 -23.890625 39.84375 -21.894531 35.71875 -20.875 L 49.859375 0 L 41.34375 0 L 27.609375 -20.15625 L 15.25 -20.15625 L 15.25 0 Z M 15.25 -26.890625 L 28.828125 -26.890625 C 32.941406 -26.890625 36.125 -27.863281 38.375 -29.8125 C 40.625 -31.769531 41.75 -34.546875 41.75 -38.140625 C 41.75 -41.722656 40.625 -44.503906 38.375 -46.484375 C 36.125 -48.460938 32.941406 -49.453125 28.828125 -49.453125 L 15.25 -49.453125 Z M 15.25 -26.890625 "/></g></g><g style="fill:#f5f5f5;fill-opacity:1;"><g transform="translate(240.013631, 444.123454)"><path style="stroke:none" d="M 33.71875 1.046875 C 28.039062 1.046875 23.007812 -0.195312 18.625 -2.6875 C 14.238281 -5.175781 10.8125 -8.613281 8.34375 -13 C 5.882812 -17.394531 4.65625 -22.425781 4.65625 -28.09375 C 4.65625 -33.820312 5.882812 -38.867188 8.34375 -43.234375 C 10.8125 -47.597656 14.238281 -51.019531 18.625 -53.5 C 23.007812 -55.988281 28.039062 -57.234375 33.71875 -57.234375 C 39.445312 -57.234375 44.488281 -55.988281 48.84375 -53.5 C 53.207031 -51.019531 56.632812 -47.597656 59.125 -43.234375 C 61.613281 -38.867188 62.859375 -33.820312 62.859375 -28.09375 C 62.859375 -22.425781 61.613281 -17.394531 59.125 -13 C 56.632812 -8.613281 53.207031 -5.175781 48.84375 -2.6875 C 44.488281 -0.195312 39.445312 1.046875 33.71875 1.046875 Z M 11.875 -28.09375 C 11.875 -23.757812 12.796875 -19.929688 14.640625 -16.609375 C 16.492188 -13.296875 19.066406 -10.703125 22.359375 -8.828125 C 25.648438 -6.953125 29.4375 -6.015625 33.71875 -6.015625 C 38.050781 -6.015625 41.847656 -6.953125 45.109375 -8.828125 C 48.378906 -10.703125 50.9375 -13.296875 52.78125 -16.609375 C 54.625 -19.929688 55.546875 -23.757812 55.546875 -28.09375 C 55.546875 -32.488281 54.625 -36.332031 52.78125 -39.625 C 50.9375 -42.914062 48.378906 -45.492188 45.109375 -47.359375 C 41.847656 -49.234375 38.050781 -50.171875 33.71875 -50.171875 C 29.4375 -50.171875 25.648438 -49.234375 22.359375 -47.359375 C 19.066406 -45.492188 16.492188 -42.914062 14.640625 -39.625 C 12.796875 -36.332031 11.875 -32.488281 11.875 -28.09375 Z M 11.875 -28.09375 "/></g></g><g style="fill:#f5f5f5;fill-opacity:1;"><g transform="translate(307.453134, 444.123454)"><path style="stroke:none" d="M 33.234375 1.046875 C 29.117188 1.046875 25.320312 0.320312 21.84375 -1.125 C 18.363281 -2.570312 15.335938 -4.59375 12.765625 -7.1875 C 10.191406 -9.78125 8.195312 -12.851562 6.78125 -16.40625 C 5.363281 -19.96875 4.65625 -23.863281 4.65625 -28.09375 C 4.65625 -32.320312 5.347656 -36.203125 6.734375 -39.734375 C 8.128906 -43.265625 10.109375 -46.34375 12.671875 -48.96875 C 15.242188 -51.59375 18.253906 -53.625 21.703125 -55.0625 C 25.160156 -56.507812 28.953125 -57.234375 33.078125 -57.234375 C 37.359375 -57.234375 41.316406 -56.457031 44.953125 -54.90625 C 48.597656 -53.351562 51.742188 -51.1875 54.390625 -48.40625 C 57.035156 -45.625 58.945312 -42.390625 60.125 -38.703125 L 52.421875 -38.703125 C 50.660156 -42.335938 48.117188 -45.15625 44.796875 -47.15625 C 41.472656 -49.164062 37.644531 -50.171875 33.3125 -50.171875 C 29.144531 -50.171875 25.441406 -49.234375 22.203125 -47.359375 C 18.960938 -45.492188 16.429688 -42.898438 14.609375 -39.578125 C 12.785156 -36.253906 11.875 -32.425781 11.875 -28.09375 C 11.875 -23.757812 12.796875 -19.929688 14.640625 -16.609375 C 16.492188 -13.296875 19.039062 -10.703125 22.28125 -8.828125 C 25.519531 -6.953125 29.222656 -6.015625 33.390625 -6.015625 C 37.191406 -6.015625 40.5625 -6.765625 43.5 -8.265625 C 46.445312 -9.765625 48.84375 -11.835938 50.6875 -14.484375 C 52.539062 -17.140625 53.707031 -20.234375 54.1875 -23.765625 L 31.3125 -23.765625 L 31.3125 -30.5 L 61.8125 -30.5 C 61.925781 -24.351562 60.789062 -18.910156 58.40625 -14.171875 C 56.019531 -9.429688 52.671875 -5.707031 48.359375 -3 C 44.054688 -0.300781 39.015625 1.046875 33.234375 1.046875 Z M 33.234375 1.046875 "/></g></g><g style="fill:#f5f5f5;fill-opacity:1;"><g transform="translate(373.688364, 444.123454)"><path style="stroke:none" d="M 8.1875 0 L 8.1875 -56.203125 L 29.625 -56.203125 C 33.53125 -56.203125 36.925781 -55.460938 39.8125 -53.984375 C 42.707031 -52.515625 44.957031 -50.441406 46.5625 -47.765625 C 48.164062 -45.085938 48.96875 -41.878906 48.96875 -38.140625 C 48.96875 -33.585938 47.789062 -29.828125 45.4375 -26.859375 C 43.082031 -23.890625 39.84375 -21.894531 35.71875 -20.875 L 49.859375 0 L 41.34375 0 L 27.609375 -20.15625 L 15.25 -20.15625 L 15.25 0 Z M 15.25 -26.890625 L 28.828125 -26.890625 C 32.941406 -26.890625 36.125 -27.863281 38.375 -29.8125 C 40.625 -31.769531 41.75 -34.546875 41.75 -38.140625 C 41.75 -41.722656 40.625 -44.503906 38.375 -46.484375 C 36.125 -48.460938 32.941406 -49.453125 28.828125 -49.453125 L 15.25 -49.453125 Z M 15.25 -26.890625 "/></g></g><g style="fill:#f5f5f5;fill-opacity:1;"><g transform="translate(428.362533, 444.123454)"><path style="stroke:none" d="M 1.359375 0 L 24.484375 -56.203125 L 31.0625 -56.203125 L 54.1875 0 L 46.71875 0 L 41.421875 -12.765625 L 14.046875 -12.765625 L 8.90625 0 Z M 16.78125 -19.34375 L 38.78125 -19.34375 L 27.78125 -46.328125 Z M 16.78125 -19.34375 "/></g></g><g style="fill:#f5f5f5;fill-opacity:1;"><g transform="translate(483.919842, 444.123454)"><path style="stroke:none" d="M 8.1875 0 L 8.1875 -56.203125 L 14.765625 -56.203125 L 36.84375 -22.875 L 58.765625 -56.203125 L 65.34375 -56.203125 L 65.34375 0 L 58.28125 0 L 58.28125 -42.953125 L 39.65625 -14.9375 L 33.875 -14.9375 L 15.25 -43.03125 L 15.25 0 Z M 8.1875 0 "/></g></g><g style="fill:#f5f5f5;fill-opacity:1;"><g transform="translate(557.461037, 444.123454)"><path style="stroke:none" d="M 1.359375 0 L 24.484375 -56.203125 L 31.0625 -56.203125 L 54.1875 0 L 46.71875 0 L 41.421875 -12.765625 L 14.046875 -12.765625 L 8.90625 0 Z M 16.78125 -19.34375 L 38.78125 -19.34375 L 27.78125 -46.328125 Z M 16.78125 -19.34375 "/></g></g><g style="fill:#f5f5f5;fill-opacity:1;"><g transform="translate(613.018346, 444.123454)"><path style="stroke:none" d="M 8.1875 0 L 8.1875 -56.203125 L 27.609375 -56.203125 C 33.390625 -56.203125 38.4375 -55.007812 42.75 -52.625 C 47.0625 -50.238281 50.421875 -46.945312 52.828125 -42.75 C 55.234375 -38.550781 56.4375 -33.664062 56.4375 -28.09375 C 56.4375 -22.582031 55.234375 -17.710938 52.828125 -13.484375 C 50.421875 -9.253906 47.0625 -5.945312 42.75 -3.5625 C 38.4375 -1.1875 33.390625 0 27.609375 0 Z M 15.25 -6.75 L 27.609375 -6.75 C 31.898438 -6.75 35.660156 -7.644531 38.890625 -9.4375 C 42.128906 -11.226562 44.660156 -13.726562 46.484375 -16.9375 C 48.304688 -20.144531 49.21875 -23.863281 49.21875 -28.09375 C 49.21875 -32.375 48.289062 -36.109375 46.4375 -39.296875 C 44.59375 -42.484375 42.035156 -44.972656 38.765625 -46.765625 C 35.503906 -48.554688 31.679688 -49.453125 27.296875 -49.453125 L 15.25 -49.453125 Z M 15.25 -6.75 "/></g></g><g style="fill:#f5f5f5;fill-opacity:1;"><g transform="translate(674.115328, 444.123454)"><path style="stroke:none" d="M 33.71875 1.046875 C 28.039062 1.046875 23.007812 -0.195312 18.625 -2.6875 C 14.238281 -5.175781 10.8125 -8.613281 8.34375 -13 C 5.882812 -17.394531 4.65625 -22.425781 4.65625 -28.09375 C 4.65625 -33.820312 5.882812 -38.867188 8.34375 -43.234375 C 10.8125 -47.597656 14.238281 -51.019531 18.625 -53.5 C 23.007812 -55.988281 28.039062 -57.234375 33.71875 -57.234375 C 39.445312 -57.234375 44.488281 -55.988281 48.84375 -53.5 C 53.207031 -51.019531 56.632812 -47.597656 59.125 -43.234375 C 61.613281 -38.867188 62.859375 -33.820312 62.859375 -28.09375 C 62.859375 -22.425781 61.613281 -17.394531 59.125 -13 C 56.632812 -8.613281 53.207031 -5.175781 48.84375 -2.6875 C 44.488281 -0.195312 39.445312 1.046875 33.71875 1.046875 Z M 11.875 -28.09375 C 11.875 -23.757812 12.796875 -19.929688 14.640625 -16.609375 C 16.492188 -13.296875 19.066406 -10.703125 22.359375 -8.828125 C 25.648438 -6.953125 29.4375 -6.015625 33.71875 -6.015625 C 38.050781 -6.015625 41.847656 -6.953125 45.109375 -8.828125 C 48.378906 -10.703125 50.9375 -13.296875 52.78125 -16.609375 C 54.625 -19.929688 55.546875 -23.757812 55.546875 -28.09375 C 55.546875 -32.488281 54.625 -36.332031 52.78125 -39.625 C 50.9375 -42.914062 48.378906 -45.492188 45.109375 -47.359375 C 41.847656 -49.234375 38.050781 -50.171875 33.71875 -50.171875 C 29.4375 -50.171875 25.648438 -49.234375 22.359375 -47.359375 C 19.066406 -45.492188 16.492188 -42.914062 14.640625 -39.625 C 12.796875 -36.332031 11.875 -32.488281 11.875 -28.09375 Z M 11.875 -28.09375 "/></g></g><g style="fill:#f5f5f5;fill-opacity:1;"><g transform="translate(134.037261, 502.152739)"><path style="stroke:none" d="M 4.65625 0 L 2.5 0 L 2.5 -17.25 L 4.65625 -17.25 Z M 4.65625 0 "/></g></g><g style="fill:#f5f5f5;fill-opacity:1;"><g transform="translate(140.636222, 502.152739)"><path style="stroke:none" d="M 13 -9.71875 C 13.03125 -9.382812 13.046875 -9.054688 13.046875 -8.734375 C 13.046875 -8.410156 13.046875 -7.984375 13.046875 -7.453125 L 13.046875 0 L 10.90625 0 L 10.90625 -7.296875 C 10.90625 -7.628906 10.90625 -7.945312 10.90625 -8.25 C 10.90625 -8.550781 10.882812 -8.867188 10.84375 -9.203125 C 10.78125 -9.984375 10.519531 -10.628906 10.0625 -11.140625 C 9.601562 -11.648438 8.859375 -11.90625 7.828125 -11.90625 C 7.140625 -11.90625 6.503906 -11.710938 5.921875 -11.328125 C 5.335938 -10.941406 4.867188 -10.304688 4.515625 -9.421875 C 4.171875 -8.535156 4 -7.335938 4 -5.828125 L 4 0 L 1.84375 0 L 1.84375 -13.25 L 4 -13.25 L 4 -10.96875 L 4.828125 -12.5 C 5.390625 -12.9375 5.9375 -13.226562 6.46875 -13.375 C 7.007812 -13.519531 7.613281 -13.59375 8.28125 -13.59375 C 9.726562 -13.59375 10.847656 -13.238281 11.640625 -12.53125 C 12.441406 -11.820312 12.894531 -10.882812 13 -9.71875 Z M 13 -9.71875 "/></g></g><g style="fill:#f5f5f5;fill-opacity:1;"><g transform="translate(155.458872, 502.152739)"><path style="stroke:none" d="M 4.171875 -15.796875 C 4.160156 -15.628906 4.144531 -15.40625 4.125 -15.125 C 4.101562 -14.851562 4.09375 -14.628906 4.09375 -14.453125 L 4.09375 -13.15625 L 6.828125 -13.15625 L 6.828125 -11.5 L 4.09375 -11.5 L 4.09375 0 L 1.953125 0 L 1.953125 -11.5 L 0.53125 -11.5 L 0.53125 -13.15625 L 1.953125 -13.15625 L 1.953125 -14.25 C 1.953125 -14.5 1.957031 -14.773438 1.96875 -15.078125 C 1.988281 -15.378906 2.007812 -15.632812 2.03125 -15.84375 C 2.144531 -16.8125 2.507812 -17.550781 3.125 -18.0625 C 3.738281 -18.582031 4.539062 -18.84375 5.53125 -18.84375 C 5.8125 -18.84375 6.078125 -18.832031 6.328125 -18.8125 C 6.585938 -18.789062 6.828125 -18.757812 7.046875 -18.71875 L 7.046875 -16.953125 C 6.234375 -17.097656 5.570312 -17.070312 5.0625 -16.875 C 4.550781 -16.6875 4.253906 -16.328125 4.171875 -15.796875 Z M 4.171875 -15.796875 "/></g></g><g style="fill:#f5f5f5;fill-opacity:1;"><g transform="translate(162.70772, 502.152739)"><path style="stroke:none" d="M 7.328125 -13.59375 C 8.828125 -13.59375 10.0625 -13.269531 11.03125 -12.625 C 12.007812 -11.988281 12.734375 -11.140625 13.203125 -10.078125 C 13.671875 -9.023438 13.90625 -7.875 13.90625 -6.625 C 13.90625 -5.394531 13.671875 -4.242188 13.203125 -3.171875 C 12.734375 -2.109375 12.007812 -1.253906 11.03125 -0.609375 C 10.0625 0.0234375 8.828125 0.34375 7.328125 0.34375 C 5.828125 0.34375 4.59375 0.0234375 3.625 -0.609375 C 2.65625 -1.253906 1.929688 -2.109375 1.453125 -3.171875 C 0.984375 -4.242188 0.75 -5.394531 0.75 -6.625 C 0.75 -7.875 0.984375 -9.023438 1.453125 -10.078125 C 1.929688 -11.140625 2.65625 -11.988281 3.625 -12.625 C 4.59375 -13.269531 5.828125 -13.59375 7.328125 -13.59375 Z M 7.328125 -1.296875 C 8.222656 -1.296875 8.984375 -1.523438 9.609375 -1.984375 C 10.234375 -2.441406 10.710938 -3.070312 11.046875 -3.875 C 11.378906 -4.675781 11.546875 -5.59375 11.546875 -6.625 C 11.546875 -8.1875 11.175781 -9.460938 10.4375 -10.453125 C 9.695312 -11.453125 8.660156 -11.953125 7.328125 -11.953125 C 5.992188 -11.953125 4.953125 -11.453125 4.203125 -10.453125 C 3.460938 -9.460938 3.09375 -8.1875 3.09375 -6.625 C 3.09375 -5.59375 3.257812 -4.675781 3.59375 -3.875 C 3.925781 -3.070312 4.40625 -2.441406 5.03125 -1.984375 C 5.65625 -1.523438 6.421875 -1.296875 7.328125 -1.296875 Z M 7.328125 -1.296875 "/></g></g><g style="fill:#f5f5f5;fill-opacity:1;"><g transform="translate(177.355401, 502.152739)"><path style="stroke:none" d="M 7.046875 -13.546875 C 7.410156 -13.546875 7.710938 -13.488281 7.953125 -13.375 L 7.953125 -11.75 C 6.835938 -11.832031 5.898438 -11.53125 5.140625 -10.84375 C 4.378906 -10.164062 4 -9.066406 4 -7.546875 L 4 0 L 1.84375 0 L 1.84375 -13.25 L 4 -13.25 L 4 -11.171875 L 5.203125 -12.953125 C 5.785156 -13.347656 6.398438 -13.546875 7.046875 -13.546875 Z M 7.046875 -13.546875 "/></g></g><g style="fill:#f5f5f5;fill-opacity:1;"><g transform="translate(185.604096, 502.152739)"><path style="stroke:none" d="M 19.46875 -10.375 C 19.519531 -10.039062 19.550781 -9.710938 19.5625 -9.390625 C 19.582031 -9.066406 19.59375 -8.632812 19.59375 -8.09375 L 19.59375 0 L 17.453125 0 L 17.453125 -7.09375 C 17.453125 -8.21875 17.414062 -9.078125 17.34375 -9.671875 C 17.25 -10.421875 16.972656 -10.976562 16.515625 -11.34375 C 16.054688 -11.71875 15.453125 -11.90625 14.703125 -11.90625 C 14.148438 -11.90625 13.648438 -11.738281 13.203125 -11.40625 C 12.765625 -11.070312 12.421875 -10.515625 12.171875 -9.734375 C 11.921875 -8.960938 11.796875 -7.898438 11.796875 -6.546875 L 11.796875 0 L 9.65625 0 L 9.65625 -7.09375 C 9.65625 -8.21875 9.617188 -9.078125 9.546875 -9.671875 C 9.453125 -10.421875 9.175781 -10.976562 8.71875 -11.34375 C 8.257812 -11.71875 7.65625 -11.90625 6.90625 -11.90625 C 6.351562 -11.90625 5.851562 -11.738281 5.40625 -11.40625 C 4.96875 -11.070312 4.625 -10.515625 4.375 -9.734375 C 4.125 -8.960938 4 -7.898438 4 -6.546875 L 4 0 L 1.84375 0 L 1.84375 -13.25 L 4 -13.25 L 4 -11.328125 L 4.84375 -12.828125 C 5.175781 -13.109375 5.582031 -13.304688 6.0625 -13.421875 C 6.539062 -13.535156 7.070312 -13.59375 7.65625 -13.59375 C 8.664062 -13.59375 9.488281 -13.363281 10.125 -12.90625 C 10.769531 -12.445312 11.21875 -11.851562 11.46875 -11.125 L 12.65625 -12.828125 C 12.988281 -13.109375 13.390625 -13.304688 13.859375 -13.421875 C 14.335938 -13.535156 14.867188 -13.59375 15.453125 -13.59375 C 16.628906 -13.59375 17.554688 -13.285156 18.234375 -12.671875 C 18.910156 -12.054688 19.320312 -11.289062 19.46875 -10.375 Z M 19.46875 -10.375 "/></g></g><g style="fill:#f5f5f5;fill-opacity:1;"><g transform="translate(206.975707, 502.152739)"><path style="stroke:none" d="M 7.15625 -14.5 L 5.75 -14.5 L 7.28125 -17.25 L 9.28125 -17.25 Z M 9.453125 0 L 9.21875 -1.90625 L 8.5 -0.46875 C 8.050781 -0.15625 7.539062 0.0546875 6.96875 0.171875 C 6.40625 0.285156 5.804688 0.34375 5.171875 0.34375 C 4.367188 0.34375 3.644531 0.195312 3 -0.09375 C 2.363281 -0.382812 1.851562 -0.804688 1.46875 -1.359375 C 1.09375 -1.921875 0.90625 -2.609375 0.90625 -3.421875 C 0.90625 -4.921875 1.492188 -6.050781 2.671875 -6.8125 C 3.859375 -7.582031 5.75 -7.96875 8.34375 -7.96875 L 9.203125 -7.96875 L 9.203125 -8.328125 C 9.203125 -8.609375 9.203125 -8.878906 9.203125 -9.140625 C 9.203125 -9.410156 9.1875 -9.671875 9.15625 -9.921875 C 9.101562 -10.535156 8.878906 -11.023438 8.484375 -11.390625 C 8.097656 -11.765625 7.460938 -11.953125 6.578125 -11.953125 C 5.671875 -11.953125 4.988281 -11.710938 4.53125 -11.234375 C 4.070312 -10.765625 3.800781 -10.070312 3.71875 -9.15625 L 1.46875 -9.15625 C 1.570312 -10.570312 2.082031 -11.664062 3 -12.4375 C 3.914062 -13.207031 5.109375 -13.59375 6.578125 -13.59375 C 8.160156 -13.59375 9.304688 -13.28125 10.015625 -12.65625 C 10.734375 -12.03125 11.15625 -11.175781 11.28125 -10.09375 C 11.3125 -9.832031 11.328125 -9.546875 11.328125 -9.234375 C 11.335938 -8.929688 11.34375 -8.632812 11.34375 -8.34375 L 11.34375 -3.375 C 11.34375 -2.875 11.359375 -2.367188 11.390625 -1.859375 C 11.429688 -1.347656 11.5 -0.726562 11.59375 0 Z M 5.90625 -1.296875 C 6.90625 -1.296875 7.703125 -1.613281 8.296875 -2.25 C 8.898438 -2.894531 9.203125 -3.820312 9.203125 -5.03125 L 9.203125 -6.375 C 7.378906 -6.507812 5.929688 -6.363281 4.859375 -5.9375 C 3.785156 -5.507812 3.25 -4.726562 3.25 -3.59375 C 3.25 -2.800781 3.484375 -2.21875 3.953125 -1.84375 C 4.429688 -1.476562 5.082031 -1.296875 5.90625 -1.296875 Z M 5.90625 -1.296875 "/></g></g><g style="fill:#f5f5f5;fill-opacity:1;"><g transform="translate(220.24861, 502.152739)"><path style="stroke:none" d="M 4.421875 -11.5 L 4.421875 -3.875 C 4.421875 -3.65625 4.421875 -3.472656 4.421875 -3.328125 C 4.421875 -3.191406 4.429688 -3.03125 4.453125 -2.84375 C 4.503906 -2.21875 4.691406 -1.8125 5.015625 -1.625 C 5.335938 -1.4375 5.914062 -1.394531 6.75 -1.5 L 6.75 0.078125 C 6.4375 0.128906 6.128906 0.160156 5.828125 0.171875 C 5.523438 0.191406 5.222656 0.203125 4.921875 0.203125 C 4.109375 0.203125 3.484375 0.0195312 3.046875 -0.34375 C 2.617188 -0.71875 2.367188 -1.3125 2.296875 -2.125 C 2.285156 -2.3125 2.28125 -2.539062 2.28125 -2.8125 C 2.28125 -3.082031 2.28125 -3.40625 2.28125 -3.78125 L 2.28125 -11.5 L 0.5 -11.5 L 0.5 -13.15625 L 2.28125 -13.15625 L 2.28125 -16.21875 L 4.421875 -16.21875 L 4.421875 -13.15625 L 6.90625 -13.15625 L 6.90625 -11.5 Z M 4.421875 -11.5 "/></g></g><g style="fill:#f5f5f5;fill-opacity:1;"><g transform="translate(228.072375, 502.152739)"><path style="stroke:none" d="M 2.921875 -17.59375 C 3.304688 -17.59375 3.628906 -17.457031 3.890625 -17.1875 C 4.160156 -16.925781 4.296875 -16.601562 4.296875 -16.21875 C 4.296875 -15.84375 4.160156 -15.519531 3.890625 -15.25 C 3.628906 -14.976562 3.304688 -14.84375 2.921875 -14.84375 C 2.535156 -14.84375 2.207031 -14.976562 1.9375 -15.25 C 1.675781 -15.519531 1.546875 -15.84375 1.546875 -16.21875 C 1.546875 -16.601562 1.675781 -16.925781 1.9375 -17.1875 C 2.207031 -17.457031 2.535156 -17.59375 2.921875 -17.59375 Z M 4 0 L 1.84375 0 L 1.84375 -13.25 L 4 -13.25 Z M 4 0 "/></g></g><g style="fill:#f5f5f5;fill-opacity:1;"><g transform="translate(234.021437, 502.152739)"><path style="stroke:none" d="M 6.96875 -13.59375 C 8.550781 -13.59375 9.832031 -13.15625 10.8125 -12.28125 C 11.789062 -11.40625 12.378906 -10.242188 12.578125 -8.796875 L 10.328125 -8.796875 C 9.859375 -10.898438 8.722656 -11.953125 6.921875 -11.953125 C 6.242188 -11.953125 5.613281 -11.765625 5.03125 -11.390625 C 4.445312 -11.023438 3.976562 -10.457031 3.625 -9.6875 C 3.269531 -8.925781 3.09375 -7.945312 3.09375 -6.75 C 3.09375 -5.46875 3.265625 -4.425781 3.609375 -3.625 C 3.953125 -2.820312 4.398438 -2.234375 4.953125 -1.859375 C 5.515625 -1.484375 6.125 -1.296875 6.78125 -1.296875 C 7.65625 -1.296875 8.390625 -1.539062 8.984375 -2.03125 C 9.578125 -2.53125 9.984375 -3.257812 10.203125 -4.21875 L 12.453125 -4.21875 C 12.128906 -2.6875 11.453125 -1.539062 10.421875 -0.78125 C 9.390625 -0.03125 8.132812 0.34375 6.65625 0.34375 C 5.53125 0.34375 4.519531 0.101562 3.625 -0.375 C 2.738281 -0.851562 2.035156 -1.601562 1.515625 -2.625 C 1.003906 -3.65625 0.75 -4.976562 0.75 -6.59375 C 0.75 -8.09375 1.035156 -9.363281 1.609375 -10.40625 C 2.179688 -11.445312 2.941406 -12.238281 3.890625 -12.78125 C 4.847656 -13.320312 5.875 -13.59375 6.96875 -13.59375 Z M 6.96875 -13.59375 "/></g></g><g style="fill:#f5f5f5;fill-opacity:1;"><g transform="translate(247.24434, 502.152739)"><path style="stroke:none" d="M 9.453125 0 L 9.21875 -1.90625 L 8.5 -0.46875 C 8.050781 -0.15625 7.539062 0.0546875 6.96875 0.171875 C 6.40625 0.285156 5.804688 0.34375 5.171875 0.34375 C 4.367188 0.34375 3.644531 0.195312 3 -0.09375 C 2.363281 -0.382812 1.851562 -0.804688 1.46875 -1.359375 C 1.09375 -1.921875 0.90625 -2.609375 0.90625 -3.421875 C 0.90625 -4.921875 1.492188 -6.050781 2.671875 -6.8125 C 3.859375 -7.582031 5.75 -7.96875 8.34375 -7.96875 L 9.203125 -7.96875 L 9.203125 -8.328125 C 9.203125 -8.609375 9.203125 -8.878906 9.203125 -9.140625 C 9.203125 -9.410156 9.1875 -9.671875 9.15625 -9.921875 C 9.101562 -10.535156 8.878906 -11.023438 8.484375 -11.390625 C 8.097656 -11.765625 7.460938 -11.953125 6.578125 -11.953125 C 5.671875 -11.953125 4.988281 -11.710938 4.53125 -11.234375 C 4.070312 -10.765625 3.800781 -10.070312 3.71875 -9.15625 L 1.46875 -9.15625 C 1.570312 -10.570312 2.082031 -11.664062 3 -12.4375 C 3.914062 -13.207031 5.109375 -13.59375 6.578125 -13.59375 C 8.160156 -13.59375 9.304688 -13.28125 10.015625 -12.65625 C 10.734375 -12.03125 11.15625 -11.175781 11.28125 -10.09375 C 11.3125 -9.832031 11.328125 -9.546875 11.328125 -9.234375 C 11.335938 -8.929688 11.34375 -8.632812 11.34375 -8.34375 L 11.34375 -3.375 C 11.34375 -2.875 11.359375 -2.367188 11.390625 -1.859375 C 11.429688 -1.347656 11.5 -0.726562 11.59375 0 Z M 5.90625 -1.296875 C 6.90625 -1.296875 7.703125 -1.613281 8.296875 -2.25 C 8.898438 -2.894531 9.203125 -3.820312 9.203125 -5.03125 L 9.203125 -6.375 C 7.378906 -6.507812 5.929688 -6.363281 4.859375 -5.9375 C 3.785156 -5.507812 3.25 -4.726562 3.25 -3.59375 C 3.25 -2.800781 3.484375 -2.21875 3.953125 -1.84375 C 4.429688 -1.476562 5.082031 -1.296875 5.90625 -1.296875 Z M 5.90625 -1.296875 "/></g></g><g style="fill:#f5f5f5;fill-opacity:1;"><g transform="translate(260.517244, 502.152739)"><path style="stroke:none" d=""/></g></g><g style="fill:#f5f5f5;fill-opacity:1;"><g transform="translate(265.916394, 502.152739)"><path style="stroke:none" d="M 4 -4.5 L 2.046875 -4.5 L 1.75 -17.25 L 4.296875 -17.25 Z M 3.03125 -2.84375 C 3.488281 -2.84375 3.867188 -2.691406 4.171875 -2.390625 C 4.472656 -2.097656 4.625 -1.71875 4.625 -1.25 C 4.625 -0.78125 4.472656 -0.394531 4.171875 -0.09375 C 3.867188 0.195312 3.488281 0.34375 3.03125 0.34375 C 2.5625 0.34375 2.175781 0.195312 1.875 -0.09375 C 1.570312 -0.394531 1.421875 -0.78125 1.421875 -1.25 C 1.421875 -1.71875 1.570312 -2.097656 1.875 -2.390625 C 2.175781 -2.691406 2.5625 -2.84375 3.03125 -2.84375 Z M 3.03125 -2.84375 "/></g></g><path style=" stroke:none;fill-rule:nonzero;fill:#ffffff;fill-opacity:1;" d="M 32.445312 82.757812 L -93.871094 82.757812 L -95.605469 81.023438 L 30.707031 81.019531 Z M 32.445312 82.757812 "/><path style=" stroke:none;fill-rule:nonzero;fill:#ffffff;fill-opacity:1;" d="M 42.972656 93.285156 L -83.347656 93.285156 L -85.082031 91.546875 L 41.234375 91.546875 Z M 42.972656 93.285156 "/><path style=" stroke:none;fill-rule:nonzero;fill:#ffffff;fill-opacity:1;" d="M 53.5 103.808594 L -72.820312 103.808594 L -74.554688 102.074219 L 51.761719 102.074219 Z M 53.5 103.808594 "/><path style=" stroke:none;fill-rule:nonzero;fill:#ffffff;fill-opacity:1;" d="M 64.023438 114.335938 L -62.292969 114.335938 L -64.027344 112.601562 L 62.289062 112.601562 Z M 64.023438 114.335938 "/><path style=" stroke:none;fill-rule:nonzero;fill:#ffffff;fill-opacity:1;" d="M 74.550781 124.863281 L -51.765625 124.863281 L -53.5 123.128906 L 72.816406 123.125 Z M 74.550781 124.863281 "/><path style=" stroke:none;fill-rule:nonzero;fill:#ffffff;fill-opacity:1;" d="M 85.078125 135.390625 L -41.238281 135.390625 L -42.976562 133.65625 L 83.339844 133.652344 Z M 85.078125 135.390625 "/><g clip-rule="nonzero" clip-path="url(#ec93b7e8a6)"><path style=" stroke:none;fill-rule:nonzero;fill:#ffffff;fill-opacity:1;" d="M 95.605469 145.917969 L -30.714844 145.917969 L -32.449219 144.179688 L 93.867188 144.179688 Z M 95.605469 145.917969 "/></g></g></svg>